{
  "accessors": [
    {
      "bufferView": 0,
      "componentType": 5125,
      "count": 4284,
      "type": "SCALAR"
    },
    {
      "bufferView": 1,
      "componentType": 5126,
      "count": 1022,
      "min": [
        -0.104683518409729,
        -0.0003655928303487599,
        -0.10265437513589859
      ],
      "max": [
        0.17387475073337556,
        0.2649663984775543,
        0.10679224133491516
      ],
      "type": "VEC3"
    },
    {
      "bufferView": 2,
      "componentType": 5126,
      "count": 1022,
      "type": "VEC3"
    },
    {
      "bufferView": 3,
      "componentType": 5126,
      "count": 1022,
      "type": "VEC2"
    }
  ],
  "asset": {
    "version": "2.0"
  },
  "bufferViews": [
    {
      "buffer": 0,
      "byteLength": 17136,
      "target": 34963
    },
    {
      "buffer": 0,
      "byteLength": 12264,
      "byteOffset": 17136,
      "target": 34962
    },
    {
      "buffer": 0,
      "byteLength": 12264,
      "byteOffset": 29400,
      "target": 34962
    },
    {
      "buffer": 0,
      "byteLength": 8176,
      "byteOffset": 41664,
      "target": 34962
    }
  ],
  "materials": [
    {
      "name": "BookStackVertical",
      "doubleSided": true,
      "normalTexture": {
        "index": 2
      },
      "pbrMetallicRoughness": {
        "baseColorTexture": {
          "index": 1
        },
        "metallicRoughnessTexture": {
          "index": 0
        }
      }
    }
  ],
  "meshes": [
    {
      "primitives": [
        {
          "attributes": {
            "NORMAL": 2,
            "POSITION": 1,
            "TEXCOORD_0": 3
          },
          "indices": 0,
          "material": 0,
          "mode": 4
        }
      ],
      "name": "BookStackVertical_geo"
    }
  ],
  "nodes": [
    {
      "mesh": 0,
      "name": "BookStackVertical"
    }
  ],
  "scene": 0,
  "scenes": [
    {
      "nodes": [
        0
      ]
    }
  ],
  "textures": [
    {
      "sampler": 0,
      "source": 0,
      "name": "texture3"
    },
    {
      "sampler": 0,
      "source": 1,
      "name": "texture2"
    },
    {
      "sampler": 0,
      "source": 2,
      "name": "texture1"
    }
  ],
  "samplers": [
    {
      "name": "sampler0",
      "magFilter": 9729,
      "minFilter": 9987,
      "wrapS": 10497,
      "wrapT": 10497
    }
  ],
  "buffers": [
    {
      "byteLength": 49840,
      "uri": "data:application/octet-stream;base64,"
    }
  ],
  "images": [
    {
      "uri": "dc75432bc01cc7a543dc838ab6bd3d99.png",
      "name": "BookStackVertical_ORM"
    },
    {
      "uri": "e24d0d5a263eff5b5cadd7d53097e229.png",
      "name": "BookStackVertical_Color"
    },
    {
      "uri": "781082a852ecc470a0836b1bd33707db.png",
      "name": "BookStackVertical_Normal"
    }
  ]
}
