{
  "accessors": [
    {
      "bufferView": 0,
      "componentType": 5125,
      "count": 4056,
      "type": "SCALAR"
    },
    {
      "bufferView": 1,
      "componentType": 5126,
      "count": 998,
      "min": [
        -0.3161572515964508,
        -0.00007572234608232975,
        -0.6964664459228516
      ],
      "max": [
        0.29413902759552,
        0.44409939646720889,
        0.6964664459228516
      ],
      "type": "VEC3"
    },
    {
      "bufferView": 2,
      "componentType": 5126,
      "count": 998,
      "type": "VEC3"
    },
    {
      "bufferView": 3,
      "componentType": 5126,
      "count": 998,
      "type": "VEC2"
    }
  ],
  "asset": {
    "version": "2.0"
  },
  "bufferViews": [
    {
      "buffer": 0,
      "byteLength": 16224,
      "target": 34963
    },
    {
      "buffer": 0,
      "byteLength": 11976,
      "byteOffset": 16224,
      "target": 34962
    },
    {
      "buffer": 0,
      "byteLength": 11976,
      "byteOffset": 28200,
      "target": 34962
    },
    {
      "buffer": 0,
      "byteLength": 7984,
      "byteOffset": 40176,
      "target": 34962
    }
  ],
  "materials": [
    {
      "name": "CoffeeTable_mat",
      "doubleSided": true,
      "normalTexture": {
        "index": 2
      },
      "pbrMetallicRoughness": {
        "baseColorTexture": {
          "index": 0
        },
        "metallicRoughnessTexture": {
          "index": 1
        }
      }
    }
  ],
  "meshes": [
    {
      "primitives": [
        {
          "attributes": {
            "NORMAL": 2,
            "POSITION": 1,
            "TEXCOORD_0": 3
          },
          "indices": 0,
          "material": 0,
          "mode": 4
        }
      ],
      "name": "CoffeeTable_geo"
    }
  ],
  "nodes": [
    {
      "rotation": [
        0.0,
        -1.0,
        0.0,
        1.6292068494294654e-7
      ],
      "mesh": 0,
      "name": "CoffeeTable"
    }
  ],
  "scene": 0,
  "scenes": [
    {
      "nodes": [
        0
      ]
    }
  ],
  "textures": [
    {
      "sampler": 0,
      "source": 0,
      "name": "texture2"
    },
    {
      "sampler": 0,
      "source": 1,
      "name": "texture3"
    },
    {
      "sampler": 0,
      "source": 2,
      "name": "texture1"
    }
  ],
  "samplers": [
    {
      "name": "sampler0",
      "magFilter": 9729,
      "minFilter": 9987,
      "wrapS": 10497,
      "wrapT": 10497
    }
  ],
  "buffers": [
    {
      "byteLength": 48160,
      "uri": "data:application/octet-stream;base64,"
    }
  ],
  "images": [
    {
      "uri": "cfeedc78ae1121dcb2435d0a045edc1b.png",
      "name": "CoffeeTable_Color"
    },
    {
      "uri": "899aba5b27d491dd337fa6e7b74dbeef.png",
      "name": "CoffeeTable_ORM"
    },
    {
      "uri": "f78ebe994eadb84ebefb52d2791a7d43.png",
      "name": "CoffeeTable_Normal"
    }
  ]
}
