{
  "accessors": [
    {
      "bufferView": 0,
      "componentType": 5125,
      "count": 8040,
      "type": "SCALAR"
    },
    {
      "bufferView": 1,
      "componentType": 5126,
      "count": 1584,
      "min": [
        -0.3736116588115692,
        0.0,
        -0.36200347542762759
      ],
      "max": [
        0.2926400601863861,
        0.8394705057144165,
        0.36200347542762759
      ],
      "type": "VEC3"
    },
    {
      "bufferView": 2,
      "componentType": 5126,
      "count": 1584,
      "type": "VEC3"
    },
    {
      "bufferView": 3,
      "componentType": 5126,
      "count": 1584,
      "type": "VEC2"
    }
  ],
  "asset": {
    "version": "2.0"
  },
  "bufferViews": [
    {
      "buffer": 0,
      "byteLength": 32160,
      "target": 34963
    },
    {
      "buffer": 0,
      "byteLength": 19008,
      "byteOffset": 32160,
      "target": 34962
    },
    {
      "buffer": 0,
      "byteLength": 19008,
      "byteOffset": 51168,
      "target": 34962
    },
    {
      "buffer": 0,
      "byteLength": 12672,
      "byteOffset": 70176,
      "target": 34962
    }
  ],
  "materials": [
    {
      "name": "EasyChair_mat",
      "doubleSided": true,
      "normalTexture": {
        "index": 0
      },
      "pbrMetallicRoughness": {
        "baseColorTexture": {
          "index": 1
        },
        "metallicRoughnessTexture": {
          "index": 2
        }
      }
    }
  ],
  "meshes": [
    {
      "primitives": [
        {
          "attributes": {
            "NORMAL": 2,
            "POSITION": 1,
            "TEXCOORD_0": 3
          },
          "indices": 0,
          "material": 0,
          "mode": 4
        }
      ],
      "name": "EasyChair_geo"
    }
  ],
  "nodes": [
    {
      "mesh": 0,
      "name": "EasyChair"
    }
  ],
  "scene": 0,
  "scenes": [
    {
      "nodes": [
        0
      ]
    }
  ],
  "textures": [
    {
      "sampler": 0,
      "source": 2,
      "name": "texture1"
    },
    {
      "sampler": 0,
      "source": 0,
      "name": "texture2"
    },
    {
      "sampler": 0,
      "source": 1,
      "name": "texture3"
    }
  ],
  "samplers": [
    {
      "name": "sampler0",
      "magFilter": 9729,
      "minFilter": 9987,
      "wrapS": 10497,
      "wrapT": 10497
    }
  ],
  "buffers": [
    {
      "byteLength": 82848,
      "uri": "data:application/octet-stream;base64,"
    }
  ],
  "images": [
    {
      "uri": "7763b9cb2627fe734c362c2ee3212cc5.png",
      "name": "EasyChair_Color"
    },
    {
      "uri": "11e20b5020cfb474a6871f3336005f1a.png",
      "name": "EasyChair_ORM"
    },
    {
      "uri": "7c6adb3c2864e380393a9044fb8002b9.png",
      "name": "EasyChair_Normal"
    }
  ]
}
