{
  "accessors": [
    {
      "bufferView": 0,
      "componentType": 5125,
      "count": 4680,
      "type": "SCALAR"
    },
    {
      "bufferView": 1,
      "componentType": 5126,
      "count": 1181,
      "min": [
        -0.2626549005508423,
        2.8400307883202915e-7,
        -0.2626549005508423
      ],
      "max": [
        0.2626558840274811,
        1.4948337078094483,
        0.2626549005508423
      ],
      "type": "VEC3"
    },
    {
      "bufferView": 2,
      "componentType": 5126,
      "count": 1181,
      "type": "VEC3"
    },
    {
      "bufferView": 3,
      "componentType": 5126,
      "count": 1181,
      "type": "VEC2"
    }
  ],
  "asset": {
    "version": "2.0"
  },
  "bufferViews": [
    {
      "buffer": 0,
      "byteLength": 18720,
      "target": 34963
    },
    {
      "buffer": 0,
      "byteLength": 14172,
      "byteOffset": 18720,
      "target": 34962
    },
    {
      "buffer": 0,
      "byteLength": 14172,
      "byteOffset": 32892,
      "target": 34962
    },
    {
      "buffer": 0,
      "byteLength": 9448,
      "byteOffset": 47064,
      "target": 34962
    }
  ],
  "materials": [
    {
      "name": "FloorLamp_mat",
      "doubleSided": true,
      "normalTexture": {
        "index": 2
      },
      "pbrMetallicRoughness": {
        "baseColorTexture": {
          "index": 0
        },
        "metallicRoughnessTexture": {
          "index": 1
        }
      }
    }
  ],
  "meshes": [
    {
      "primitives": [
        {
          "attributes": {
            "NORMAL": 2,
            "POSITION": 1,
            "TEXCOORD_0": 3
          },
          "indices": 0,
          "material": 0,
          "mode": 4
        }
      ],
      "name": "FloorLamp_geo"
    }
  ],
  "nodes": [
    {
      "mesh": 0,
      "name": "FloorLamp"
    }
  ],
  "scene": 0,
  "scenes": [
    {
      "nodes": [
        0
      ]
    }
  ],
  "textures": [
    {
      "sampler": 0,
      "source": 0,
      "name": "texture2"
    },
    {
      "sampler": 0,
      "source": 1,
      "name": "texture3"
    },
    {
      "sampler": 0,
      "source": 2,
      "name": "texture1"
    }
  ],
  "samplers": [
    {
      "name": "sampler0",
      "magFilter": 9729,
      "minFilter": 9987,
      "wrapS": 10497,
      "wrapT": 10497
    }
  ],
  "buffers": [
    {
      "byteLength": 56512,
      "uri": "data:application/octet-stream;base64,"
    }
  ],
  "images": [
    {
      "uri": "11e5527636e18eeaa405e26bf96e1269.png",
      "name": "FloorLamp_Color"
    },
    {
      "uri": "5bd47804cb5d41ef6a3bec8cb6c0b256.png",
      "name": "FloorLamp_ORM"
    },
    {
      "uri": "2984c631f299acb6cf8ba3ce2fcaa5c8.png",
      "name": "FloorLamp_Normal"
    }
  ]
}
