{
  "accessors": [
    {
      "bufferView": 0,
      "componentType": 5125,
      "count": 23406,
      "type": "SCALAR"
    },
    {
      "bufferView": 1,
      "componentType": 5126,
      "count": 5261,
      "min": [
        -0.9787611961364746,
        -0.0023189224302768709,
        -0.44675302505493166
      ],
      "max": [
        0.9914528727531433,
        0.8662217855453491,
        0.4570448398590088
      ],
      "type": "VEC3"
    },
    {
      "bufferView": 2,
      "componentType": 5126,
      "count": 5261,
      "type": "VEC3"
    },
    {
      "bufferView": 3,
      "componentType": 5126,
      "count": 5261,
      "type": "VEC2"
    }
  ],
  "asset": {
    "version": "2.0"
  },
  "bufferViews": [
    {
      "buffer": 0,
      "byteLength": 93624,
      "target": 34963
    },
    {
      "buffer": 0,
      "byteLength": 63132,
      "byteOffset": 93624,
      "target": 34962
    },
    {
      "buffer": 0,
      "byteLength": 63132,
      "byteOffset": 156756,
      "target": 34962
    },
    {
      "buffer": 0,
      "byteLength": 42088,
      "byteOffset": 219888,
      "target": 34962
    }
  ],
  "materials": [
    {
      "name": "LeatherSofa_mat",
      "doubleSided": true,
      "normalTexture": {
        "index": 2
      },
      "occlusionTexture": {
        "index": 1
      },
      "pbrMetallicRoughness": {
        "baseColorTexture": {
          "index": 0
        },
        "metallicRoughnessTexture": {
          "index": 1
        }
      }
    }
  ],
  "meshes": [
    {
      "primitives": [
        {
          "attributes": {
            "NORMAL": 2,
            "POSITION": 1,
            "TEXCOORD_0": 3
          },
          "indices": 0,
          "material": 0,
          "mode": 4
        }
      ],
      "name": "LeatherSofa_geo"
    }
  ],
  "nodes": [
    {
      "mesh": 0,
      "name": "LeatherSofa"
    }
  ],
  "scene": 0,
  "scenes": [
    {
      "nodes": [
        0
      ]
    }
  ],
  "textures": [
    {
      "sampler": 0,
      "source": 0,
      "name": "texture3"
    },
    {
      "sampler": 0,
      "source": 1,
      "name": "texture2"
    },
    {
      "sampler": 0,
      "source": 2,
      "name": "texture1"
    }
  ],
  "samplers": [
    {
      "name": "sampler0",
      "magFilter": 9729,
      "minFilter": 9987,
      "wrapS": 10497,
      "wrapT": 10497
    }
  ],
  "buffers": [
    {
      "byteLength": 261976,
      "uri": "data:application/octet-stream;base64,"
    }
  ],
  "images": [
    {
      "uri": "b8eac639f12d09527bfee861beb697f5.png",
      "name": "LeatherSofa_Color"
    },
    {
      "uri": "5f39e68a71c903bdace07a6337c5edba.png",
      "name": "LeatherSofa_ORM"
    },
    {
      "uri": "61da18d4619c1ef9c8dafea1d2dfef50.png",
      "name": "LeatherSofa_Normal"
    }
  ]
}
