{
  "accessors": [
    {
      "bufferView": 0,
      "componentType": 5125,
      "count": 6324,
      "type": "SCALAR"
    },
    {
      "bufferView": 1,
      "componentType": 5126,
      "count": 1345,
      "min": [
        -0.09329324960708618,
        -0.0010799787705764175,
        -0.09329327195882797
      ],
      "max": [
        0.09329326450824738,
        0.776390016078949,
        0.09329325705766678
      ],
      "type": "VEC3"
    },
    {
      "bufferView": 2,
      "componentType": 5126,
      "count": 1345,
      "type": "VEC3"
    },
    {
      "bufferView": 3,
      "componentType": 5126,
      "count": 1345,
      "type": "VEC2"
    }
  ],
  "asset": {
    "version": "2.0"
  },
  "bufferViews": [
    {
      "buffer": 0,
      "byteLength": 25296,
      "target": 34963
    },
    {
      "buffer": 0,
      "byteLength": 16140,
      "byteOffset": 25296,
      "target": 34962
    },
    {
      "buffer": 0,
      "byteLength": 16140,
      "byteOffset": 41436,
      "target": 34962
    },
    {
      "buffer": 0,
      "byteLength": 10760,
      "byteOffset": 57576,
      "target": 34962
    }
  ],
  "materials": [
    {
      "name": "Plant_B_mat",
      "doubleSided": true,
      "normalTexture": {
        "index": 0
      },
      "pbrMetallicRoughness": {
        "baseColorTexture": {
          "index": 1
        },
        "metallicRoughnessTexture": {
          "index": 2
        }
      }
    }
  ],
  "meshes": [
    {
      "primitives": [
        {
          "attributes": {
            "NORMAL": 2,
            "POSITION": 1,
            "TEXCOORD_0": 3
          },
          "indices": 0,
          "material": 0,
          "mode": 4
        }
      ],
      "name": "Plant_B_geo"
    }
  ],
  "nodes": [
    {
      "mesh": 0,
      "name": "Plant_B"
    }
  ],
  "scene": 0,
  "scenes": [
    {
      "nodes": [
        0
      ]
    }
  ],
  "textures": [
    {
      "sampler": 0,
      "source": 1,
      "name": "texture1"
    },
    {
      "sampler": 0,
      "source": 0,
      "name": "texture2"
    },
    {
      "sampler": 0,
      "source": 2,
      "name": "texture3"
    }
  ],
  "samplers": [
    {
      "name": "sampler0",
      "magFilter": 9729,
      "minFilter": 9987,
      "wrapS": 10497,
      "wrapT": 10497
    }
  ],
  "buffers": [
    {
      "byteLength": 68336,
      "uri": "data:application/octet-stream;base64,"
    }
  ],
  "images": [
    {
      "uri": "f01b673e7ede8d3694062c8b5feb9419.png",
      "name": "Plant_B_Color"
    },
    {
      "uri": "f4652e4aae65f084410a47e83cfbd0e4.png",
      "name": "Plant_B_Normal"
    },
    {
      "uri": "42529f6551cf6742b3f396089d65093f.png",
      "name": "Plant_B_ORM"
    }
  ]
}
