{
  "accessors": [
    {
      "bufferView": 0,
      "componentType": 5125,
      "count": 6096,
      "type": "SCALAR"
    },
    {
      "bufferView": 1,
      "componentType": 5126,
      "count": 1299,
      "min": [
        -0.14591170847415925,
        -0.0010799765586853028,
        -0.18947772681713105
      ],
      "max": [
        0.14463400840759278,
        0.4789590835571289,
        0.13743270933628083
      ],
      "type": "VEC3"
    },
    {
      "bufferView": 2,
      "componentType": 5126,
      "count": 1299,
      "type": "VEC3"
    },
    {
      "bufferView": 3,
      "componentType": 5126,
      "count": 1299,
      "type": "VEC2"
    }
  ],
  "asset": {
    "version": "2.0"
  },
  "bufferViews": [
    {
      "buffer": 0,
      "byteLength": 24384,
      "target": 34963
    },
    {
      "buffer": 0,
      "byteLength": 15588,
      "byteOffset": 24384,
      "target": 34962
    },
    {
      "buffer": 0,
      "byteLength": 15588,
      "byteOffset": 39972,
      "target": 34962
    },
    {
      "buffer": 0,
      "byteLength": 10392,
      "byteOffset": 55560,
      "target": 34962
    }
  ],
  "materials": [
    {
      "name": "PlantSansevieria_mat",
      "doubleSided": true,
      "normalTexture": {
        "index": 2
      },
      "pbrMetallicRoughness": {
        "baseColorTexture": {
          "index": 0
        },
        "metallicRoughnessTexture": {
          "index": 1
        }
      }
    }
  ],
  "meshes": [
    {
      "primitives": [
        {
          "attributes": {
            "NORMAL": 2,
            "POSITION": 1,
            "TEXCOORD_0": 3
          },
          "indices": 0,
          "material": 0,
          "mode": 4
        }
      ],
      "name": "PlantSansevieria_geo"
    }
  ],
  "nodes": [
    {
      "mesh": 0,
      "name": "PlantSansevieria"
    }
  ],
  "scene": 0,
  "scenes": [
    {
      "nodes": [
        0
      ]
    }
  ],
  "textures": [
    {
      "sampler": 0,
      "source": 0,
      "name": "texture2"
    },
    {
      "sampler": 0,
      "source": 1,
      "name": "texture3"
    },
    {
      "sampler": 0,
      "source": 2,
      "name": "texture1"
    }
  ],
  "samplers": [
    {
      "name": "sampler0",
      "magFilter": 9729,
      "minFilter": 9987,
      "wrapS": 10497,
      "wrapT": 10497
    }
  ],
  "buffers": [
    {
      "byteLength": 65952,
      "uri": "data:application/octet-stream;base64,"
    }
  ],
  "images": [
    {
      "uri": "74dfc45d02dc82b12e5f78f746595698.png",
      "name": "PlantSansevieria_Color"
    },
    {
      "uri": "d4978425948a18d0f8e31f98232b81c1.png",
      "name": "PlantSansevieria_ORM"
    },
    {
      "uri": "f1569237527b16131ce98cd7bc94c74e.png",
      "name": "PlantSansevieria_Normal"
    }
  ]
}
