{
  "accessors": [
    {
      "bufferView": 0,
      "componentType": 5125,
      "count": 8841,
      "type": "SCALAR"
    },
    {
      "bufferView": 1,
      "componentType": 5126,
      "count": 3184,
      "min": [
        -0.2067529410123825,
        -0.00010006129741668701,
        -0.14836300909519196
      ],
      "max": [
        0.1799323707818985,
        0.0948079377412796,
        0.1516369730234146
      ],
      "type": "VEC3"
    },
    {
      "bufferView": 2,
      "componentType": 5126,
      "count": 3184,
      "type": "VEC3"
    },
    {
      "bufferView": 3,
      "componentType": 5126,
      "count": 3184,
      "type": "VEC2"
    },
    {
      "bufferView": 4,
      "componentType": 5125,
      "count": 1068,
      "type": "SCALAR"
    },
    {
      "bufferView": 5,
      "componentType": 5126,
      "count": 431,
      "min": [
        -0.2049986571073532,
        0.02213466912508011,
        -0.1650020331144333
      ],
      "max": [
        0.20499864220619203,
        0.043938979506492618,
        0.16499866545200349
      ],
      "type": "VEC3"
    },
    {
      "bufferView": 6,
      "componentType": 5126,
      "count": 431,
      "type": "VEC3"
    },
    {
      "bufferView": 7,
      "componentType": 5126,
      "count": 431,
      "type": "VEC2"
    },
    {
      "bufferView": 8,
      "componentType": 5125,
      "count": 918,
      "type": "SCALAR"
    },
    {
      "bufferView": 9,
      "componentType": 5126,
      "count": 364,
      "min": [
        -0.19640178978443147,
        0.043938979506492618,
        -0.1649986207485199
      ],
      "max": [
        0.2049986571073532,
        0.047134675085544589,
        0.16500213742256165
      ],
      "type": "VEC3"
    },
    {
      "bufferView": 10,
      "componentType": 5126,
      "count": 364,
      "type": "VEC3"
    },
    {
      "bufferView": 11,
      "componentType": 5126,
      "count": 364,
      "type": "VEC2"
    }
  ],
  "asset": {
    "version": "2.0"
  },
  "bufferViews": [
    {
      "buffer": 0,
      "byteLength": 35364,
      "target": 34963
    },
    {
      "buffer": 0,
      "byteLength": 38208,
      "byteOffset": 35364,
      "target": 34962
    },
    {
      "buffer": 0,
      "byteLength": 38208,
      "byteOffset": 73572,
      "target": 34962
    },
    {
      "buffer": 0,
      "byteLength": 25472,
      "byteOffset": 111780,
      "target": 34962
    },
    {
      "buffer": 0,
      "byteLength": 4272,
      "byteOffset": 137252,
      "target": 34963
    },
    {
      "buffer": 0,
      "byteLength": 5172,
      "byteOffset": 141524,
      "target": 34962
    },
    {
      "buffer": 0,
      "byteLength": 5172,
      "byteOffset": 146696,
      "target": 34962
    },
    {
      "buffer": 0,
      "byteLength": 3448,
      "byteOffset": 151868,
      "target": 34962
    },
    {
      "buffer": 0,
      "byteLength": 3672,
      "byteOffset": 155316,
      "target": 34963
    },
    {
      "buffer": 0,
      "byteLength": 4368,
      "byteOffset": 158988,
      "target": 34962
    },
    {
      "buffer": 0,
      "byteLength": 4368,
      "byteOffset": 163356,
      "target": 34962
    },
    {
      "buffer": 0,
      "byteLength": 2912,
      "byteOffset": 167724,
      "target": 34962
    }
  ],
  "materials": [
    {
      "name": "recordPlayerBase_mat",
      "doubleSided": true,
      "normalTexture": {
        "index": 6
      },
      "occlusionTexture": {
        "index": 1
      },
      "pbrMetallicRoughness": {
        "baseColorFactor": [
          0.5246946811676025,
          0.5246946811676025,
          0.5246946811676025,
          1.0
        ],
        "metallicRoughnessTexture": {
          "index": 1
        }
      }
    },
    {
      "name": "recordPlayerElements_mat",
      "doubleSided": true,
      "normalTexture": {
        "index": 4
      },
      "occlusionTexture": {
        "index": 2
      },
      "pbrMetallicRoughness": {
        "baseColorTexture": {
          "index": 0
        },
        "metallicRoughnessTexture": {
          "index": 2
        }
      }
    },
    {
      "name": "recordPlayerPanel_mat",
      "doubleSided": true,
      "normalTexture": {
        "index": 3
      },
      "occlusionTexture": {
        "index": 5
      },
      "pbrMetallicRoughness": {
        "baseColorFactor": [
          0.6896001100540161,
          0.2609718441963196,
          0.0,
          1.0
        ],
        "metallicRoughnessTexture": {
          "index": 5
        }
      }
    }
  ],
  "meshes": [
    {
      "primitives": [
        {
          "attributes": {
            "NORMAL": 2,
            "POSITION": 1,
            "TEXCOORD_0": 3
          },
          "indices": 0,
          "material": 1,
          "mode": 4
        },
        {
          "attributes": {
            "NORMAL": 6,
            "POSITION": 5,
            "TEXCOORD_0": 7
          },
          "indices": 4,
          "material": 0,
          "mode": 4
        },
        {
          "attributes": {
            "NORMAL": 10,
            "POSITION": 9,
            "TEXCOORD_0": 11
          },
          "indices": 8,
          "material": 2,
          "mode": 4
        }
      ],
      "name": "recordPlayer_geo"
    }
  ],
  "nodes": [
    {
      "mesh": 0,
      "name": "recordPlayer"
    }
  ],
  "scene": 0,
  "scenes": [
    {
      "nodes": [
        0
      ]
    }
  ],
  "textures": [
    {
      "sampler": 0,
      "source": 0,
      "name": "texture3"
    },
    {
      "sampler": 0,
      "source": 1,
      "name": "texture5"
    },
    {
      "sampler": 0,
      "source": 1,
      "name": "texture2"
    },
    {
      "sampler": 0,
      "source": 2,
      "name": "texture6"
    },
    {
      "sampler": 0,
      "source": 2,
      "name": "texture1"
    },
    {
      "sampler": 0,
      "source": 1,
      "name": "texture7"
    },
    {
      "sampler": 0,
      "source": 2,
      "name": "texture4"
    }
  ],
  "samplers": [
    {
      "name": "sampler0",
      "magFilter": 9729,
      "minFilter": 9987,
      "wrapS": 10497,
      "wrapT": 10497
    }
  ],
  "buffers": [
    {
      "byteLength": 170636,
      "uri": "data:application/octet-stream;base64,"
    }
  ],
  "images": [
    {
      "uri": "e57f3fc5b5f2b52eb2ea07fad739ed17.png",
      "name": "recordPlayer_mat_Color"
    },
    {
      "uri": "f5033f4e1345e6dcc877743b0ed2c255.png",
      "name": "recordPlayer_mat_ORM"
    },
    {
      "uri": "ae366b57087da27e37dcb3cdef71a187.png",
      "name": "recordPlayer_mat_Normal"
    }
  ]
}
