{
  "accessors": [
    {
      "bufferView": 0,
      "componentType": 5125,
      "count": 11346,
      "type": "SCALAR"
    },
    {
      "bufferView": 1,
      "componentType": 5126,
      "count": 2135,
      "min": [
        -0.36854231357574465,
        -0.00016197841614484787,
        -0.5175281167030335
      ],
      "max": [
        0.3459044396877289,
        0.6736827492713928,
        0.5054213404655457
      ],
      "type": "VEC3"
    },
    {
      "bufferView": 2,
      "componentType": 5126,
      "count": 2135,
      "type": "VEC3"
    },
    {
      "bufferView": 3,
      "componentType": 5126,
      "count": 2135,
      "type": "VEC2"
    }
  ],
  "asset": {
    "version": "2.0"
  },
  "bufferViews": [
    {
      "buffer": 0,
      "byteLength": 45384,
      "target": 34963
    },
    {
      "buffer": 0,
      "byteLength": 25620,
      "byteOffset": 45384,
      "target": 34962
    },
    {
      "buffer": 0,
      "byteLength": 25620,
      "byteOffset": 71004,
      "target": 34962
    },
    {
      "buffer": 0,
      "byteLength": 17080,
      "byteOffset": 96624,
      "target": 34962
    }
  ],
  "materials": [
    {
      "name": "SculptureLoop_mat",
      "doubleSided": true,
      "normalTexture": {
        "index": 2
      },
      "pbrMetallicRoughness": {
        "baseColorTexture": {
          "index": 0
        },
        "metallicRoughnessTexture": {
          "index": 1
        }
      }
    }
  ],
  "meshes": [
    {
      "primitives": [
        {
          "attributes": {
            "NORMAL": 2,
            "POSITION": 1,
            "TEXCOORD_0": 3
          },
          "indices": 0,
          "material": 0,
          "mode": 4
        }
      ],
      "name": "SculptureLoop_geo"
    }
  ],
  "nodes": [
    {
      "mesh": 0,
      "name": "SculptureLoop"
    }
  ],
  "scene": 0,
  "scenes": [
    {
      "nodes": [
        0
      ]
    }
  ],
  "textures": [
    {
      "sampler": 0,
      "source": 0,
      "name": "texture2"
    },
    {
      "sampler": 0,
      "source": 1,
      "name": "texture3"
    },
    {
      "sampler": 0,
      "source": 2,
      "name": "texture1"
    }
  ],
  "samplers": [
    {
      "name": "sampler0",
      "magFilter": 9729,
      "minFilter": 9987,
      "wrapS": 10497,
      "wrapT": 10497
    }
  ],
  "buffers": [
    {
      "byteLength": 113704,
      "uri": "data:application/octet-stream;base64,"
    }
  ],
  "images": [
    {
      "uri": "89897d0d622e0a2e7507b755f7000beb.png",
      "name": "SculptureLoop_Color"
    },
    {
      "uri": "a36548f79cb2c0412e7ecd455c66f6be.png",
      "name": "SculptureLoop_ORM"
    },
    {
      "uri": "7a7f7f82dfc9e8084710e92b6d4b75da.png",
      "name": "SculptureLoop_Normal"
    }
  ]
}
