{
  "accessors": [
    {
      "bufferView": 0,
      "componentType": 5125,
      "count": 1278,
      "type": "SCALAR"
    },
    {
      "bufferView": 1,
      "componentType": 5126,
      "count": 584,
      "min": [
        -0.22134631872177125,
        -0.008838843554258347,
        -0.899553656578064
      ],
      "max": [
        0.25104570388793948,
        0.8399457931518555,
        0.9030013680458069
      ],
      "type": "VEC3"
    },
    {
      "bufferView": 2,
      "componentType": 5126,
      "count": 584,
      "type": "VEC3"
    },
    {
      "bufferView": 3,
      "componentType": 5126,
      "count": 584,
      "type": "VEC2"
    }
  ],
  "asset": {
    "version": "2.0"
  },
  "bufferViews": [
    {
      "buffer": 0,
      "byteLength": 5112,
      "target": 34963
    },
    {
      "buffer": 0,
      "byteLength": 7008,
      "byteOffset": 5112,
      "target": 34962
    },
    {
      "buffer": 0,
      "byteLength": 7008,
      "byteOffset": 12120,
      "target": 34962
    },
    {
      "buffer": 0,
      "byteLength": 4672,
      "byteOffset": 19128,
      "target": 34962
    }
  ],
  "materials": [
    {
      "name": "Sideboard_mat",
      "doubleSided": true,
      "normalTexture": {
        "index": 2
      },
      "pbrMetallicRoughness": {
        "baseColorTexture": {
          "index": 1
        },
        "metallicRoughnessTexture": {
          "index": 0
        }
      }
    }
  ],
  "meshes": [
    {
      "primitives": [
        {
          "attributes": {
            "NORMAL": 2,
            "POSITION": 1,
            "TEXCOORD_0": 3
          },
          "indices": 0,
          "material": 0,
          "mode": 4
        }
      ],
      "name": "Sideboard_geo"
    }
  ],
  "nodes": [
    {
      "mesh": 0,
      "name": "Sideboard"
    }
  ],
  "scene": 0,
  "scenes": [
    {
      "nodes": [
        0
      ]
    }
  ],
  "textures": [
    {
      "sampler": 0,
      "source": 1,
      "name": "texture3"
    },
    {
      "sampler": 0,
      "source": 0,
      "name": "texture2"
    },
    {
      "sampler": 0,
      "source": 2,
      "name": "texture1"
    }
  ],
  "samplers": [
    {
      "name": "sampler0",
      "magFilter": 9729,
      "minFilter": 9987,
      "wrapS": 10497,
      "wrapT": 10497
    }
  ],
  "buffers": [
    {
      "byteLength": 23800,
      "uri": "data:application/octet-stream;base64,"
    }
  ],
  "images": [
    {
      "uri": "0fbab3c2da4c165603837b5a0553aed8.png",
      "name": "SideBoard_Color"
    },
    {
      "uri": "3156615cc7b4700613787c4ad9a9d9e4.png",
      "name": "SideBoard_ORM"
    },
    {
      "uri": "68dd3d58224ee45dfa17c32d77a6ead9.png",
      "name": "SideBoard_Normal"
    }
  ]
}
