{
  "accessors": [
    {
      "bufferView": 0,
      "componentType": 5125,
      "count": 7698,
      "type": "SCALAR"
    },
    {
      "bufferView": 1,
      "componentType": 5126,
      "count": 1916,
      "min": [
        -0.9999998807907105,
        -5.960464477539063e-8,
        -0.9999999403953552
      ],
      "max": [
        0.9999998807907105,
        3.2394797801971437,
        0.9999998807907105
      ],
      "type": "VEC3"
    },
    {
      "bufferView": 2,
      "componentType": 5126,
      "count": 1916,
      "type": "VEC3"
    },
    {
      "bufferView": 3,
      "componentType": 5126,
      "count": 1916,
      "type": "VEC2"
    },
    {
      "bufferView": 4,
      "componentType": 5125,
      "count": 156,
      "type": "SCALAR"
    },
    {
      "bufferView": 5,
      "componentType": 5126,
      "count": 53,
      "min": [
        -0.8358407020568848,
        3.2392795085906984,
        -0.8358407616615295
      ],
      "max": [
        0.8358407020568848,
        3.2392797470092775,
        0.8358407020568848
      ],
      "type": "VEC3"
    },
    {
      "bufferView": 6,
      "componentType": 5126,
      "count": 53,
      "type": "VEC3"
    },
    {
      "bufferView": 7,
      "componentType": 5126,
      "count": 53,
      "type": "VEC2"
    }
  ],
  "asset": {
    "version": "2.0"
  },
  "bufferViews": [
    {
      "buffer": 0,
      "byteLength": 30792,
      "target": 34963
    },
    {
      "buffer": 0,
      "byteLength": 22992,
      "byteOffset": 30792,
      "target": 34962
    },
    {
      "buffer": 0,
      "byteLength": 22992,
      "byteOffset": 53784,
      "target": 34962
    },
    {
      "buffer": 0,
      "byteLength": 15328,
      "byteOffset": 76776,
      "target": 34962
    },
    {
      "buffer": 0,
      "byteLength": 624,
      "byteOffset": 92104,
      "target": 34963
    },
    {
      "buffer": 0,
      "byteLength": 636,
      "byteOffset": 92728,
      "target": 34962
    },
    {
      "buffer": 0,
      "byteLength": 636,
      "byteOffset": 93364,
      "target": 34962
    },
    {
      "buffer": 0,
      "byteLength": 424,
      "byteOffset": 94000,
      "target": 34962
    }
  ],
  "materials": [
    {
      "name": "SmartSpeaker",
      "doubleSided": true,
      "normalTexture": {
        "index": 3
      },
      "occlusionTexture": {
        "index": 2
      },
      "emissiveTexture": {
        "index": 4
      },
      "emissiveFactor": [
        1.0,
        1.0,
        1.0
      ],
      "pbrMetallicRoughness": {
        "baseColorTexture": {
          "index": 0
        },
        "metallicRoughnessTexture": {
          "index": 2
        }
      }
    },
    {
      "name": "Display",
      "doubleSided": true,
      "normalTexture": {
        "index": 5
      },
      "occlusionTexture": {
        "index": 6
      },
      "pbrMetallicRoughness": {
        "baseColorTexture": {
          "index": 1
        },
        "metallicRoughnessTexture": {
          "index": 6
        }
      }
    }
  ],
  "meshes": [
    {
      "primitives": [
        {
          "attributes": {
            "NORMAL": 2,
            "POSITION": 1,
            "TEXCOORD_0": 3
          },
          "indices": 0,
          "material": 0,
          "mode": 4
        },
        {
          "attributes": {
            "NORMAL": 6,
            "POSITION": 5,
            "TEXCOORD_0": 7
          },
          "indices": 4,
          "material": 1,
          "mode": 4
        }
      ],
      "name": "SmartSpeaker_geo"
    }
  ],
  "nodes": [
    {
      "scale": [
        0.09486693143844605,
        0.09486693143844605,
        0.09486693143844605
      ],
      "mesh": 0,
      "name": "SmartSpeaker"
    }
  ],
  "scene": 0,
  "scenes": [
    {
      "nodes": [
        0
      ]
    }
  ],
  "textures": [
    {
      "sampler": 0,
      "source": 0,
      "name": "texture4"
    },
    {
      "sampler": 0,
      "source": 6,
      "name": "texture7"
    },
    {
      "sampler": 0,
      "source": 2,
      "name": "texture3"
    },
    {
      "sampler": 0,
      "source": 3,
      "name": "texture2"
    },
    {
      "sampler": 0,
      "source": 5,
      "name": "texture1"
    },
    {
      "sampler": 0,
      "source": 1,
      "name": "texture5"
    },
    {
      "sampler": 0,
      "source": 4,
      "name": "texture6"
    }
  ],
  "samplers": [
    {
      "name": "sampler0",
      "magFilter": 9729,
      "minFilter": 9987,
      "wrapS": 10497,
      "wrapT": 10497
    }
  ],
  "buffers": [
    {
      "byteLength": 94424,
      "uri": "data:application/octet-stream;base64,"
    }
  ],
  "images": [
    {
      "uri": "6f96c553d061b9f8a39e3484dda089a9.png",
      "name": "SmartSpeaker_Color"
    },
    {
      "uri": "f3574c72534d2660442a691663a87d69.png",
      "name": "Display_Normal"
    },
    {
      "uri": "75aa1d23544fbf1aa19cebfdc3c9d74a.png",
      "name": "SmartSpeaker_ORM"
    },
    {
      "uri": "214874d3734ff43eac115fbfffc42c21.png",
      "name": "SmartSpeaker_Normal"
    },
    {
      "uri": "4bde612a837da664ca91879b0272ecb4.png",
      "name": "Display_ORM"
    },
    {
      "uri": "e94258e3dea1060ddec1e1219ac15319.png",
      "name": "SmartSpeaker_Emissive"
    },
    {
      "uri": "9f4d33d0900f0a280e038a8a543d4833.png",
      "name": "Display_Color"
    }
  ]
}
